<svg xmlns="http://www.w3.org/2000/svg" viewBox="0 0 85 85"><defs><style>.cls-1,.cls-2{fill:none;}.cls-2{stroke:#231f20;stroke-linecap:round;stroke-linejoin:round;stroke-width:1.5px;}</style></defs><g id="Layer_2" data-name="Layer 2"><g id="Icons"><path class="cls-1" d="M42.5,0c.7,0,1.39,0,2.09.05L46.67.2c.69.07,1.38.16,2.07.26s1.37.22,2,.36,1.36.28,2,.45,1.34.36,2,.56,1.32.42,2,.65,1.3.49,1.94.76,1.28.54,1.91.84,1.25.61,1.86.94,1.22.67,1.82,1,1.18.73,1.76,1.11,1.15.79,1.71,1.2,1.1.85,1.64,1.29S70.53,10.54,71,11s1,1,1.51,1.44,1,1,1.44,1.51.92,1,1.36,1.58.87,1.08,1.29,1.64.81,1.13,1.2,1.71.76,1.16,1.11,1.76.7,1.2,1,1.82.64,1.23.94,1.86.58,1.26.84,1.91.52,1.29.76,1.94.45,1.32.65,2,.39,1.34.56,2,.32,1.36.45,2,.26,1.37.36,2,.19,1.38.26,2.07.11,1.39.15,2.08,0,1.39,0,2.09,0,1.39,0,2.09-.09,1.38-.15,2.08-.16,1.38-.26,2.07-.22,1.37-.36,2-.28,1.36-.45,2-.36,1.34-.56,2-.42,1.32-.65,2-.49,1.3-.76,1.94-.54,1.28-.84,1.91-.61,1.25-.94,1.86-.67,1.22-1,1.82-.73,1.18-1.11,1.76-.79,1.15-1.2,1.71-.85,1.1-1.29,1.64S74.46,70.53,74,71s-.95,1-1.44,1.51-1,1-1.51,1.44-1,.92-1.58,1.36-1.08.87-1.64,1.29-1.13.81-1.71,1.2S65,78.6,64.35,79s-1.2.7-1.82,1-1.23.64-1.86.94-1.26.58-1.91.84-1.29.52-1.94.76-1.32.45-2,.65-1.34.39-2,.56-1.36.32-2,.45-1.37.26-2,.36-1.38.19-2.07.26L44.59,85c-.7,0-1.39,0-2.09,0s-1.39,0-2.09,0l-2.08-.15c-.69-.07-1.38-.16-2.07-.26s-1.37-.22-2-.36-1.36-.28-2-.45-1.34-.36-2-.56-1.32-.42-2-.65-1.3-.49-1.94-.76-1.28-.54-1.91-.84-1.25-.61-1.86-.94-1.22-.67-1.82-1-1.18-.73-1.76-1.11-1.15-.79-1.71-1.2-1.1-.85-1.64-1.29S14.47,74.46,14,74s-1-.95-1.51-1.44-1-1-1.44-1.51-.92-1-1.36-1.58-.87-1.08-1.29-1.64-.81-1.13-1.2-1.71S6.4,65,6.05,64.35s-.7-1.2-1-1.82-.64-1.23-.94-1.86-.58-1.26-.84-1.91-.52-1.29-.76-1.94-.45-1.32-.65-2-.39-1.34-.56-2-.32-1.36-.45-2-.26-1.37-.36-2S.27,47.36.2,46.67.09,45.28.05,44.59,0,43.2,0,42.5s0-1.39.05-2.09S.14,39,.2,38.33.36,37,.46,36.26s.22-1.37.36-2,.28-1.36.45-2,.36-1.34.56-2,.42-1.32.65-2,.49-1.3.76-1.94.54-1.28.84-1.91.61-1.25.94-1.86.67-1.22,1-1.82.73-1.18,1.11-1.76.79-1.15,1.2-1.71.85-1.1,1.29-1.64S10.54,14.47,11,14s1-1,1.44-1.51,1-1,1.51-1.44,1-.92,1.58-1.36,1.08-.87,1.64-1.29,1.13-.81,1.71-1.2,1.16-.76,1.76-1.11,1.2-.7,1.82-1,1.23-.64,1.86-.94,1.26-.58,1.91-.84,1.29-.52,1.94-.76,1.32-.45,2-.65,1.34-.39,2-.56,1.36-.32,2-.45,1.37-.26,2-.36S37.64.27,38.33.2L40.41.05C41.11,0,41.8,0,42.5,0Z"/><path class="cls-2" d="M42.48,26c.35,0,.7,0,1.05.05s.7.09,1,.16a9.47,9.47,0,0,1,1,.25c.34.1.67.22,1,.35a9.12,9.12,0,0,1,1,.45,8.24,8.24,0,0,1,.9.54,8.81,8.81,0,0,1,.85.62,12,12,0,0,1,1.49,1.48c.22.28.43.56.62.85a10.3,10.3,0,0,1,.55.9c.16.31.31.62.45.95s.25.65.35,1a8.46,8.46,0,0,1,.26,1c.07.34.12.69.16,1s.05.7.05,1.05,0,.71-.05,1a9,9,0,0,1-.15,1,8.46,8.46,0,0,1-.26,1,8.29,8.29,0,0,1-.35,1,8.39,8.39,0,0,1-.45,1,10.11,10.11,0,0,1-.53.9q-.3.43-.63.84c-.22.27-.46.53-.7.78a10.41,10.41,0,0,1-.78.71q-.41.33-.84.63c-.3.19-.6.37-.91.54a8.1,8.1,0,0,1-.94.45c-.33.14-.66.25-1,.36a9.47,9.47,0,0,1-1,.25,9.34,9.34,0,0,1-1,.16,11.05,11.05,0,0,1-2.1,0,9,9,0,0,1-1-.15c-.35-.07-.69-.15-1-.25s-.67-.22-1-.35-.64-.29-1-.45-.61-.35-.91-.54a8.36,8.36,0,0,1-.84-.63,10.27,10.27,0,0,1-.78-.7c-.25-.25-.48-.51-.71-.78s-.43-.55-.63-.84-.37-.59-.54-.9-.31-.63-.45-.95-.25-.65-.35-1a8.46,8.46,0,0,1-.26-1c-.07-.34-.12-.69-.16-1s-.05-.7-.05-1,0-.7.05-1.05a9.3,9.3,0,0,1,.15-1c.07-.34.15-.68.25-1s.22-.66.36-1,.28-.64.44-.95.35-.61.54-.9.41-.57.63-.85.46-.53.7-.78.51-.48.78-.7a8.36,8.36,0,0,1,.84-.63,8.24,8.24,0,0,1,.9-.54,9.12,9.12,0,0,1,1-.45,9.85,9.85,0,0,1,1-.36c.34-.1.68-.19,1-.26A12.2,12.2,0,0,1,42.48,26Z"/><path class="cls-2" d="M47.09,19.54a5.19,5.19,0,0,0-9.19,0"/><path class="cls-2" d="M37.91,19.54a5.19,5.19,0,0,0-8,4.6"/><path class="cls-2" d="M30,24.14a5.19,5.19,0,0,0-4.6,8"/><path class="cls-2" d="M25.35,32.1a5.19,5.19,0,0,0,0,9.19"/><path class="cls-2" d="M25.35,41.29a5.19,5.19,0,0,0,4.6,8"/><path class="cls-2" d="M29.94,49.25a5.19,5.19,0,0,0,8,4.59"/><path class="cls-2" d="M37.9,53.84a5.19,5.19,0,0,0,9.2,0"/><path class="cls-2" d="M47.09,53.84a5.19,5.19,0,0,0,8-4.59"/><path class="cls-2" d="M55.05,49.25a5.19,5.19,0,0,0,4.6-8"/><path class="cls-2" d="M59.65,41.29a5.2,5.2,0,0,0,0-9.2"/><path class="cls-2" d="M59.65,32.1a5.19,5.19,0,0,0-4.6-8"/><path class="cls-2" d="M55.05,24.14a5.18,5.18,0,0,0-8-4.6"/><polyline class="cls-2" points="39.74 55.83 34.34 68.24 30.87 62.68 24.43 63.92 30.03 51.06"/><polyline class="cls-2" points="45.26 55.83 50.66 68.24 54.13 62.68 60.57 63.92 54.88 50.83"/></g></g></svg>