<svg xmlns="http://www.w3.org/2000/svg" viewBox="0 0 85 85"><defs><style>.cls-1,.cls-2{fill:none;}.cls-2{stroke:#231f20;stroke-linejoin:round;stroke-width:1.5px;}</style></defs><g id="Layer_2" data-name="Layer 2"><g id="Icons"><path class="cls-1" d="M42.5,0q1.043,0,2.085.051t2.081.154q1.038.1,2.07.255t2.055.357q1.023.2,2.036.457t2.01.556q1,.3,1.981.654t1.946.751q.964.4,1.907.845t1.863.938q.921.492,1.815,1.028t1.763,1.116q.867.581,1.7,1.2t1.645,1.283q.805.661,1.579,1.363t1.511,1.438q.738.738,1.438,1.511t1.363,1.579q.662.807,1.283,1.645t1.2,1.705q.581.868,1.116,1.763t1.029,1.815q.49.919.937,1.863t.846,1.907q.4.965.751,1.946t.654,1.981q.3,1,.556,2.01t.457,2.036q.2,1.023.357,2.055t.255,2.07q.1,1.038.154,2.081T85,42.5q0,1.043-.051,2.085T84.8,46.666q-.1,1.038-.255,2.07t-.357,2.055q-.2,1.023-.457,2.036t-.556,2.01q-.3,1-.654,1.981t-.751,1.946q-.4.964-.846,1.907t-.937,1.863q-.492.921-1.029,1.815t-1.116,1.763q-.579.867-1.2,1.7t-1.283,1.645q-.661.805-1.363,1.579t-1.438,1.511q-.738.738-1.511,1.438t-1.579,1.363q-.807.662-1.645,1.283t-1.7,1.2q-.868.581-1.763,1.116t-1.815,1.029q-.919.49-1.863.937t-1.907.846q-.965.4-1.946.751t-1.981.654q-1,.3-2.01.556t-2.036.457q-1.023.2-2.055.357t-2.07.255q-1.039.1-2.081.154T42.5,85q-1.044,0-2.085-.051T38.334,84.8q-1.038-.1-2.07-.255t-2.055-.357q-1.025-.2-2.036-.457t-2.01-.556q-1-.3-1.981-.654t-1.946-.751q-.965-.4-1.907-.846t-1.863-.937q-.921-.492-1.815-1.029t-1.763-1.116q-.867-.579-1.705-1.2t-1.645-1.283q-.806-.661-1.579-1.363t-1.511-1.438q-.738-.738-1.438-1.511T9.647,69.462q-.662-.807-1.283-1.645t-1.2-1.7q-.579-.868-1.116-1.763T5.018,62.534q-.492-.919-.938-1.863t-.845-1.907q-.4-.965-.751-1.946T1.83,54.837q-.3-1-.556-2.01T.817,50.791q-.2-1.023-.357-2.055t-.255-2.07Q.1,45.627.051,44.585T0,42.5q0-1.044.051-2.085t.154-2.081q.1-1.038.255-2.07t.357-2.055q.2-1.025.457-2.036t.556-2.01q.3-1,.654-1.981t.751-1.946q.4-.965.845-1.907t.938-1.863q.492-.921,1.028-1.815t1.116-1.763q.581-.867,1.2-1.705t1.283-1.645q.661-.806,1.363-1.579t1.438-1.511q.738-.738,1.511-1.438t1.579-1.363q.807-.662,1.645-1.283t1.705-1.2q.868-.579,1.763-1.116t1.815-1.028q.919-.492,1.863-.938t1.907-.845q.965-.4,1.946-.751t1.981-.654q1-.3,2.01-.556T34.209.817q1.023-.2,2.055-.357t2.07-.255Q39.372.1,40.415.051T42.5,0Z"/><line class="cls-2" x1="31.517" y1="38.081" x2="28.937" y2="38.081"/><line class="cls-2" x1="55.707" y1="38.081" x2="53.127" y2="38.081"/><line class="cls-2" x1="34.687" y1="30.441" x2="32.857" y2="28.621"/><line class="cls-2" x1="49.957" y1="30.441" x2="51.787" y2="28.621"/><line class="cls-2" x1="42.317" y1="24.701" x2="42.317" y2="27.281"/><path class="cls-2" d="M47.057,68v-6.62h12.46V50.361H66.4l-2.01-16.01a21.054,21.054,0,0,0-41.78,3.7v25.37"/><path class="cls-2" d="M46.047,48.5v-.23a5.827,5.827,0,0,1,1.77-4.13,7.615,7.615,0,0,0,2.27-5.49,7.766,7.766,0,1,0-13.19,5.58,5.341,5.341,0,0,1,1.68,3.84v.43"/><polygon class="cls-2" points="38.577 48.501 42.317 48.501 46.047 48.501 46.047 51.541 43.967 52.781 43.337 53.891 41.297 53.891 40.667 52.781 38.577 51.541 38.577 48.501"/><line class="cls-2" x1="42.317" y1="48.501" x2="42.317" y2="41.191"/></g></g></svg>