<svg xmlns="http://www.w3.org/2000/svg" viewBox="0 0 85 85"><defs><style>.cls-1,.cls-2,.cls-3{fill:none;}.cls-2,.cls-3{stroke:#231f20;stroke-linejoin:round;stroke-width:1.5px;}.cls-2{stroke-linecap:round;}</style></defs><g id="Layer_2" data-name="Layer 2"><g id="Icons"><path class="cls-1" d="M42.5,0c.7,0,1.39,0,2.09.05L46.67.2c.69.07,1.38.16,2.07.26s1.37.22,2,.36,1.36.28,2,.45,1.34.36,2,.56,1.32.42,2,.65,1.3.49,1.94.76,1.28.54,1.91.84,1.25.61,1.86.94,1.22.67,1.82,1,1.18.73,1.76,1.11,1.15.79,1.71,1.2,1.1.85,1.64,1.29S70.53,10.54,71,11s1,1,1.51,1.44,1,1,1.44,1.51.92,1,1.36,1.58.87,1.08,1.29,1.64.81,1.13,1.2,1.71.76,1.16,1.11,1.76.7,1.2,1,1.82.64,1.23.94,1.86.58,1.26.84,1.91.52,1.29.76,1.94.45,1.32.65,2,.39,1.34.56,2,.32,1.36.45,2,.26,1.37.36,2,.19,1.38.26,2.07.11,1.39.15,2.08,0,1.39,0,2.09,0,1.39,0,2.09-.09,1.38-.15,2.08-.16,1.38-.26,2.07-.22,1.37-.36,2-.28,1.36-.45,2-.36,1.34-.56,2-.42,1.32-.65,2-.49,1.3-.76,1.94-.54,1.28-.84,1.91-.61,1.25-.94,1.86-.67,1.22-1,1.82-.73,1.18-1.11,1.76-.79,1.15-1.2,1.71-.85,1.1-1.29,1.64S74.46,70.53,74,71s-.95,1-1.44,1.51-1,1-1.51,1.44-1,.92-1.58,1.36-1.08.87-1.64,1.29-1.13.81-1.71,1.2S65,78.6,64.35,79s-1.2.7-1.82,1-1.23.64-1.86.94-1.26.58-1.91.84-1.29.52-1.94.76-1.32.45-2,.65-1.34.39-2,.56-1.36.32-2,.45-1.37.26-2,.36-1.38.19-2.07.26L44.59,85c-.7,0-1.39,0-2.09,0s-1.39,0-2.09,0l-2.08-.15c-.69-.07-1.38-.16-2.07-.26s-1.37-.22-2-.36-1.36-.28-2-.45-1.34-.36-2-.56-1.32-.42-2-.65-1.3-.49-1.94-.76-1.28-.54-1.91-.84-1.25-.61-1.86-.94-1.22-.67-1.82-1-1.18-.73-1.76-1.11-1.15-.79-1.71-1.2-1.1-.85-1.64-1.29S14.47,74.46,14,74s-1-.95-1.51-1.44-1-1-1.44-1.51-.92-1-1.36-1.58-.87-1.08-1.29-1.64-.81-1.13-1.2-1.71S6.4,65,6.05,64.35s-.7-1.2-1-1.82-.64-1.23-.94-1.86-.58-1.26-.84-1.91-.52-1.29-.76-1.94-.45-1.32-.65-2-.39-1.34-.56-2-.32-1.36-.45-2-.26-1.37-.36-2S.27,47.36.2,46.67.09,45.28.05,44.59,0,43.2,0,42.5s0-1.39.05-2.09S.14,39,.2,38.33.36,37,.46,36.26s.22-1.37.36-2,.28-1.36.45-2,.36-1.34.56-2,.42-1.32.65-2,.49-1.3.76-1.94.54-1.28.84-1.91.61-1.25.94-1.86.67-1.22,1-1.82.73-1.18,1.11-1.76.79-1.15,1.2-1.71.85-1.1,1.29-1.64S10.54,14.47,11,14s1-1,1.44-1.51,1-1,1.51-1.44,1-.92,1.58-1.36,1.08-.87,1.64-1.29,1.13-.81,1.71-1.2,1.16-.76,1.76-1.11,1.2-.7,1.82-1,1.23-.64,1.86-.94,1.26-.58,1.91-.84,1.29-.52,1.94-.76,1.32-.45,2-.65,1.34-.39,2-.56,1.36-.32,2-.45,1.37-.26,2-.36S37.64.27,38.33.2L40.41.05C41.11,0,41.8,0,42.5,0Z"/><line class="cls-2" x1="42.5" y1="61.57" x2="42.5" y2="61.57"/><path class="cls-3" d="M42.5,39.64a5,5,0,0,1,1,.1,5.65,5.65,0,0,1,1,.3,5.18,5.18,0,0,1,.9.48A5.36,5.36,0,0,1,46.86,42a5.27,5.27,0,0,1,.48.91,4.12,4.12,0,0,1,.3,1,5.3,5.3,0,0,1,0,2,4.42,4.42,0,0,1-.3,1,5.27,5.27,0,0,1-.48.91,5.46,5.46,0,0,1-.65.79,5.54,5.54,0,0,1-.8.65,5.23,5.23,0,0,1-.9.49,5.65,5.65,0,0,1-1,.3,5.25,5.25,0,0,1-2,0,5.65,5.65,0,0,1-1-.3,5.23,5.23,0,0,1-.9-.49,5.54,5.54,0,0,1-.8-.65,5.46,5.46,0,0,1-.65-.79,5.27,5.27,0,0,1-.48-.91,4.42,4.42,0,0,1-.3-1,5.3,5.3,0,0,1,0-2,4.12,4.12,0,0,1,.3-1,5.27,5.27,0,0,1,.48-.91,5.36,5.36,0,0,1,1.45-1.45,5.18,5.18,0,0,1,.9-.48,5.65,5.65,0,0,1,1-.3A5,5,0,0,1,42.5,39.64Z"/><path class="cls-3" d="M49.17,62.52h1.91A1.91,1.91,0,0,0,53,60.61V57.75c0-4.74-4.7-7.62-10.49-7.62S32,53,32,57.75v2.86a1.91,1.91,0,0,0,1.91,1.91h1.91"/><path class="cls-2" d="M35.83,65.73V57.4a.58.58,0,0,1,.6-.6H48.57a.58.58,0,0,1,.6.6v8.33a.58.58,0,0,1-.6.6H36.43a.58.58,0,0,1-.6-.6Z"/><line class="cls-2" x1="57.75" y1="53.94" x2="57.75" y2="53.94"/><path class="cls-3" d="M57.75,32a5.89,5.89,0,0,1,1,.1,5.82,5.82,0,0,1,1,.3,5.32,5.32,0,0,1,.91.49,5.29,5.29,0,0,1,1.44,1.44,5.32,5.32,0,0,1,.49.91,5.82,5.82,0,0,1,.3,1,5.3,5.3,0,0,1,0,2.05,5.24,5.24,0,0,1-.79,1.89,5.52,5.52,0,0,1-1.44,1.45,5.27,5.27,0,0,1-.91.48,5.82,5.82,0,0,1-1,.3,5.3,5.3,0,0,1-2.05,0,5.46,5.46,0,0,1-1.89-.78,5.76,5.76,0,0,1-1.45-1.45,5.46,5.46,0,0,1-.78-1.89,5.3,5.3,0,0,1,0-2.05,5.82,5.82,0,0,1,.3-1,5.27,5.27,0,0,1,.48-.91,5.52,5.52,0,0,1,1.45-1.44,5.24,5.24,0,0,1,1.89-.79A5.87,5.87,0,0,1,57.75,32Z"/><path class="cls-2" d="M56.8,58.71h6.67a1,1,0,0,0,1-1V50.13a1,1,0,0,0-1-1H52"/><line class="cls-2" x1="27.25" y1="53.94" x2="27.25" y2="53.94"/><path class="cls-3" d="M27.25,32a5.87,5.87,0,0,1,1,.1,5.24,5.24,0,0,1,1.89.79,5.52,5.52,0,0,1,1.45,1.44,5.27,5.27,0,0,1,.48.91,5.82,5.82,0,0,1,.3,1,5.3,5.3,0,0,1,0,2.05,5.46,5.46,0,0,1-.78,1.89,5.76,5.76,0,0,1-1.45,1.45,5.46,5.46,0,0,1-1.89.78,5.3,5.3,0,0,1-2.05,0,5.82,5.82,0,0,1-1-.3,5.27,5.27,0,0,1-.91-.48,5.52,5.52,0,0,1-1.44-1.45,5.24,5.24,0,0,1-.79-1.89,5.2,5.2,0,0,1,.3-3,5.32,5.32,0,0,1,.49-.91,5.29,5.29,0,0,1,1.44-1.44,5.32,5.32,0,0,1,.91-.49,5.82,5.82,0,0,1,1-.3A5.89,5.89,0,0,1,27.25,32Z"/><path class="cls-2" d="M28.2,58.71H21.53a1,1,0,0,1-1-1V50.13a1,1,0,0,1,1-1H33"/><path class="cls-2" d="M64.43,54.89h1.9A1.9,1.9,0,0,0,68.24,53V50.13c0-4.74-4.7-7.63-10.49-7.63a13.66,13.66,0,0,0-6.62,1.55"/><path class="cls-2" d="M33.87,44.05a13.66,13.66,0,0,0-6.62-1.55c-5.79,0-10.49,2.89-10.49,7.63V53a1.9,1.9,0,0,0,1.91,1.9h1.9"/><path class="cls-3" d="M52.55,24.1l-9.21,3.95a2,2,0,0,1-.76.15h-.17a2,2,0,0,1-.75-.15L32.45,24.1a.75.75,0,0,1-.44-.67.72.72,0,0,1,.44-.66l9.21-3.95a2,2,0,0,1,.75-.15h.17a2,2,0,0,1,.76.15l9.21,3.95a.72.72,0,0,1,.44.66A.75.75,0,0,1,52.55,24.1Z"/><line class="cls-2" x1="32.01" y1="28.2" x2="32.01" y2="23.43"/><path class="cls-3" d="M35.83,25.54v5.33a1.89,1.89,0,0,0,1.08,1.72,13.54,13.54,0,0,0,5.59,1.33,13.54,13.54,0,0,0,5.59-1.33,1.89,1.89,0,0,0,1.08-1.72V25.54"/></g></g></svg>